<?xml version="1.0" encoding="utf-8"?>
<!-- Generator: Adobe Illustrator 20.1.0, SVG Export Plug-In . SVG Version: 6.00 Build 0)  -->
<svg version="1.1" id="regionportugal" xmlns="http://www.w3.org/2000/svg" xmlns:xlink="http://www.w3.org/1999/xlink" x="0px"
	 y="0px" viewBox="0 0 261.2 517.2" style="enable-background:new 0 0 261.2 517.2;" xml:space="preserve">
<style type="text/css">
	.lisboa, .norte, .centro, .alentejo, .algarve{fill:#006600;stroke:#FFFFFF;stroke-miterlimit:10;}
	
	.lisboa, .norte, .centro, .alentejo, .algarve{
	animation-name:hide;
	animation-duration: 3s;
	fill:#006600;
	stroke:#ffffff;
	stroke-width:1;stroke-linejoin:round;}
	
	
	
	@keyframes hide {
	
				
				0% {
					opacity:0;
				}
				
				100%{
				opacity:1;}
			}
	.mondego, .tejo, .tamega, .douro, .cavado, .lima, .minho, .ave, .zezere, .sorraia, .sado, .guadiana, .chanca, .mira
	{fill:none;stroke:#D1D1D1;stroke-width:6;stroke-linecap:round;stroke-linejoin:round;}
	
	.mondego:hover, .tejo:hover, .tamega:hover, .douro:hover, .cavado:hover, .lima:hover, .minho:hover, .ave:hover, .zezere:hover, .sorraia:hover, .sado:hover, .guadiana:hover, .chanca:hover, .mira:hover
	{fill:none;stroke:#B0EEFF;stroke-width:6;stroke-linecap:round;stroke-linejoin:round;}
	
	
</style>
<path id="norte" class="norte" d="M61.3,82.8l8.5,35h25.3l-0.8-6.2l34.6-4.2l31.5-3.8l21.3-2.6l1.2,9.7l15.8,7.1l0.1-0.1L247,75.5
	V61.4l-2.8-4.5h-20.6V28.1l-43.5-2.7L177,37.8l-56.4-4l-9.5,2.3L111,36l-2.8,0.7l0-0.2l0-0.1l0,0l-5.6-23.5l-13.1-1.3l-39.4,25
	l0,0.1l6.2,25.4l0,0l5,20.5"/>
<path id="centro" class="centro" d="M203.8,194.2l1.3-53.6l-6.3-23l-15.8-7.1l-1.2-9.7l-13,1.6v-0.1l-8.3,1l-31.5,3.8l-30.9,3.8l0,0.4
	h-3.4l-0.7,0.1l0.8,6.2H69.6l-0.3-1.2l-5.9,21.7l10.1,3.9l-6.8,17.6l-6.8-2.6v12.3l-8.1,25.9v20.1l-33.4,70.3l12.9,9.7l12.6-10.9
	l11.9-16.7l5,3.5l10.3-8.5l-4.8-23.7l16.3-3.3l1.7,8.3l13.4-3.3l0.8-0.6v5.3l3.7,10.2l12.5-1.3v-9.8h9.2l3.8,8.5l63.8-6.5l9.6-28.4
	l-11.5-10.4l4.6-14L203.8,194.2z"/>
<path id="alentejo" class="alentejo" d="M66.6,429.5l-4.9,5.9L58,452.3l2.7,12.2h37.9l-1.1,5.3l14.7,3.1l5.7,1.2l2-9.6h10.5l21.6-10.4
	l4.5-5.4l-1.4-7.9l19.8-31l10.1-0.4l11.1-15.3l-14-0.8l-5.2-12.9l-11.3-12.7l8.5-31.1l22.1-22.1l-7.9-11.2l-5.5,3.8l-17.4-25
	l5.3-3.7l-19.5-27.6l-18.5,1.9v8.4l-40.2,43.6l4.3,9.8 M96.9,314.6l3.1,7.1l9.2,14.4l-4.6,0.4l-7.7-7.8l-14.7,5.4l-0.5,4.6
	l-10.9,19.2l2.1,1l-13.9,9.2l-5.7,43.5l13.1,17.9l0.1-0.1"/>
<polygon id="lisboa" class="lisboa" points="28,348.1 30.6,366.3 70.9,358 81.8,338.8 82.3,334.2 97,328.8 104.7,336.6 109.2,336.1 
	100,321.7 92.5,304.6 132.6,261 132.6,252.6 127.7,253.1 123.9,244.6 114.7,244.6 114.7,254.5 102.2,255.7 98.4,245.6 98.4,240.2 
	97.7,240.8 84.2,244.1 82.6,235.8 66.2,239.1 71,262.8 60.7,271.3 55.7,267.8 43.9,284.5 41.5,286.5 31.3,295.4 20.5,287.2 
	7.2,331.2 7.2,341.7 32.9,341.8 36.1,337.5 45.6,315.7 54.7,312.5 54.5,315.8 50.1,326.4 49.5,340.5 "/>
<polygon id="algarve" class="algarve" points="152.4,454.1 152.1,454.1 130.5,464.5 120,464.5 117.9,474.1 97.5,469.8 98.6,464.5 
	60.7,464.5 52.8,478.4 47.5,497.2 70.9,493.7 72.1,488.1 119.3,498.8 118.4,502.7 129.9,502.7 160.5,484.9 "/>

<line id="mondego_1_" class="mondego" x1="52.6" y1="200.4" x2="177.5" y2="149.5"/>
<polyline id="tejo_1_" class="tejo" points="244.4,233.2 137.5,247.6 88.7,266.8 43.4,320.7 "/>
<line id="tamega_1_" class="tamega" x1="160.4" y1="37" x2="100" y2="109.7"/>
<polyline id="douro_1_" class="douro" points="252.6,52.5 198.8,117.7 127.1,100.3 84.6,114.6 58,102.4 "/>
<line id="cavado_1_" class="cavado" x1="139.8" y1="37" x2="59" y2="73.3"/>
<polyline id="lima_1_" class="lima" points="107.5,30.7 84.5,37 54,52.5 "/>
<polyline id="minho_1_" class="minho" points="101.7,13.8 88.4,12 50.1,37 "/>
<polyline id="ave_1_" class="ave" points="69.9,143.7 80.6,153.1 95.7,141 138.3,137.3 "/>
<polyline id="zezere_1_" class="zezere" points="170.6,171.2 96.9,229.8 88.7,266.8 "/>
<polyline id="sorraia_1_" class="sorraia" points="162.8,287.2 138,281.7 115,314.6 84.5,307.7 67.9,314.6 51.4,311.2 "/>
<polyline id="sado_1_" class="sado" points="70.9,358 89.3,372.1 83.9,393.5 98.7,435.2 "/>
<polyline id="guadiana_1_" class="guadiana" points="167.3,366.3 156.1,394.4 143.9,396.6 152.1,454.1 "/>
<line id="chanca_1_" class="chanca" x1="194.3" y1="396.6" x2="156.1" y2="394.4"/>
<line id="mira_1_" class="mira" x1="60.9" y1="421.6" x2="74.2" y2="435.2"/>
</svg>
