<?xml version="1.0" encoding="utf-8"?>
<!-- Generator: Adobe Illustrator 20.1.0, SVG Export Plug-In . SVG Version: 6.00 Build 0)  -->
<svg version="1.1" id="Calque_1" xmlns="http://www.w3.org/2000/svg" xmlns:xlink="http://www.w3.org/1999/xlink" x="0px" y="0px"
	 viewBox="0 0 396 253.4" style="enable-background:new 0 0 396 253.4;" xml:space="preserve">
<style type="text/css">
	.zurich, .lemanique, .tessin, .oriental, .mitteland, .nordouest, .central
	{fill:#E53E3E;stroke:#FFFFFF;stroke-miterlimit:10;}
	
	.zurich, .lemanique, .tessin, .oriental, .mitteland, .nordouest, .central{
	animation-name:hide;
	animation-duration: 3s;
	fill:#E53E3E;
	stroke:#ffffff;
	stroke-width:1;stroke-linejoin:round;}
	
	
	
	@keyframes hide {
	
				
				0% {
					opacity:0;
				}
				
				100%{
				opacity:1;}
			}
			
			
	.rhin{fill:none;stroke:#D1D1D1;stroke-width:6;stroke-linecap:round;stroke-linejoin:round;}
	.rhin:hover{fill:none;stroke:#B0EEFF;stroke-width:6;stroke-linecap:round;stroke-linejoin:round;}
	
	.neuchatellac, .genevelac, .maggiore, .zurichlac, .lucernelac, .constancelac
	{fill:none;stroke:#D1D1D1;stroke-width:22;stroke-miterlimit:10;}
	
	.neuchatellac:hover, .genevelac:hover, .maggiore:hover, .zurichlac:hover, .lucernelac:hover, .constancelac:hover
	{fill:none;stroke:#B0EEFF;stroke-width:22;stroke-miterlimit:10;}
	
</style>
<polygon id="zurich" class="zurich" points="233.7,18.6 256.1,40.4 265.3,65.7 248.5,79.2 238.3,86.1 213.9,74.3 218.2,66.4 
	210.7,43.3 222.8,27.2 231.1,28.2 "/>
<polyline id="lemanique" class="lemanique" points="76.7,181.2 74.4,211.2 104.3,249.3 140.9,234.5 166.9,241.8 193.2,215.1 187.9,197.3 
	219.5,168.4 213.6,148.6 200.4,165.1 183,160.8 172.5,172.7 117.2,186.8 112.3,191.6 112.7,163.1 92.3,176 87.7,168.4 77.5,167.7 
	83.7,159.2 73.9,158.5 93.6,122.6 99.5,122 97.9,108.8 95.1,103.5 71.2,121.3 64,113.8 50.5,123.6 44.6,121.7 44.2,133.4 
	14.4,156.5 17.9,161.1 9.9,176.3 15.5,184.8 15.5,184.8 14.5,199.7 1.7,200.3 0,210.2 16.8,211.8 31.6,200.6 26.7,198.7 24.4,186.2 
	24.4,186.2 32,172.9 60,166.1 85.7,180.7 76.7,181.2 "/>
<polygon id="tessin" class="tessin" points="281.8,212.1 270,196.7 274.9,173.9 261.4,151.9 240,160.5 238.9,152.4 217.9,162.5 
	219.6,168.4 212.1,175.2 220.5,174.5 218.1,200.6 240.4,221.3 255,221.7 250.3,234.9 262.6,252.8 276,245 267.5,228.4 "/>
<polygon id="central" class="central" points="263.1,110.8 257.3,102.9 266.2,84.5 248.5,79.2 238.3,86.1 238.3,86.2 215.2,75 
	211.5,82.4 204.1,71 185,73.9 166.6,76.6 168.2,97.3 176.8,107.5 167.5,125.3 184.3,132.8 184.3,132.8 184.4,132.8 191,136.9 
	210.6,133.5 218.8,136 213.7,148.8 217.9,162.6 238.8,152.5 238,146.4 256.7,129.3 263.6,127 261.6,115.9 "/>
<g id="oriental">
	<polygon class="oriental" points="236.2,20.7 233.7,18.5 224.6,23.8 214.2,18.9 228.7,2.6 243.3,10.8 242.5,19 256.5,24.7 266.6,20.6 
		285,24.3 303.8,42.7 323,46.3 321.8,57.1 307.7,82.9 311.7,91.8 306.9,97.7 341.3,101.2 343.3,114.1 366.7,123.6 384.8,103.9 
		397.3,113.4 395.6,162.8 363.4,153.2 359.1,176.9 370.3,200 360.7,203.6 346.6,184.5 319.6,196 304.5,171.3 289.6,174.3 
		292.9,192.7 281.7,212.2 269.9,196.7 274.8,174 261.3,151.9 239.9,160.5 238,146.3 256.7,129.2 263.6,126.9 261.7,115.9 
		263.1,110.8 257.3,102.9 266.1,84.6 266,84.6 248.3,79.3 265.1,65.8 261.1,54.9 261.4,54.8 256.2,40.3 	"/>
</g>
<path id="mitteland" class="mitteland" d="M121.5,50.6h-10.5l0.3-7.9l-15.8-0.3L83.6,58.5l11.5,0.3l3.6,3.3L81,81.8v2.6L68.8,98.3
	l-25.3,11.8l1,11.5l5.9,2l13.5-9.9l7.2,7.6l24-17.9l2.8,5.3l-0.2,0l1.6,13.2l-5.9,0.7l-19.7,35.9l9.9,0.7l-6.3,8.6l10.2,0.7l4.6,7.6
	l20.4-12.8l-0.2,22.1l-0.2,6.5l5.1-4.9l55.3-14.2l10.5-11.8l17.4,4.3l13.2-16.5l5.1-12.7l-8.2-2.3L191,137l-6.6-4.1l-16.8-7.6
	l9.2-17.8l-8.6-10.2l-1.6-20.7l1.1-0.2l-2.4-3.7l-0.2,0l7.2-9.8l6.8,4.5l5.8-8.7l-6.8-9.8l-16.6,14.3L148.6,58l6-13.6h-6l-16.7,12.9
	L121.5,50.6z"/>
<polyline id="nordouest" class="nordouest" points="178,48.8 184.9,58.6 179.1,67.4 172.3,62.9 165.1,72.7 167.8,76.4 185,73.9 
	204.1,70.9 211.6,82.4 215.2,75 214,74.2 218.3,66.3 210.7,43.3 217.6,34.3 196.4,27.2 185.6,35.7 172.9,35.9 165.4,31.4 
	154.1,37.9 154.1,29.8 141.4,33.1 138,42.4 121.5,50.5 131.9,57.2 148.6,44.4 154.6,44.4 148.6,58 161.4,63.1 178,48.8 "/>
<polyline id="rhin" class="rhin" points="243.7,151.7 241.9,145.6 276.3,131.7 297.9,124.1 309.5,113.6 303.5,99 305.2,89.1 
	302.8,81.8 315.6,56.3 315.6,47.1 "/>
<line id="neuchatellac" class="neuchatellac" x1="70.6" y1="124.1" x2="102.4" y2="102.6"/>
<polyline id="genevelac" class="genevelac" points="88.9,171.3 48.6,168.2 33.3,180 27.6,193.3 "/>
<polyline id="maggiore" class="maggiore" points="229.9,245.6 226.5,224.5 238.7,211.1 238.7,200 247.5,195.4 "/>
<polyline id="zurichlac" class="zurichlac" points="220.2,65.6 232.9,79.3 248.9,80.2 "/>
<polyline id="lucernelac" class="lucernelac" points="225.3,116 220.2,108.3 203.3,100.6 "/>
<polyline id="constancelac" class="constancelac" points="317.6,45.8 271.8,15.5 265.2,25.3 256.8,19.3 "/>
</svg>
