<?xml version="1.0" encoding="utf-8"?>
<!-- Generator: Adobe Illustrator 20.1.0, SVG Export Plug-In . SVG Version: 6.00 Build 0)  -->
<svg version="1.1" id="Calque_1" xmlns="http://www.w3.org/2000/svg" xmlns:xlink="http://www.w3.org/1999/xlink" x="0px" y="0px"
	 viewBox="0 0 394.1 85.2" style="enable-background:new 0 0 394.1 85.2;" xml:space="preserve">
<style type="text/css">
	.st0{fill:#636363;}
</style>
<g>
	<path class="st0" d="M16.4,12.5h5.9v22.3H34v5.2H16.4V12.5z"/>
	<path class="st0" d="M52.5,32.5h-8.5l-2.6,7.5h-6.1l9.7-27.5h6.8l9.7,27.5h-6.4L52.5,32.5z M45.4,27.3H51l-2.8-8.7h-0.1L45.4,27.3z
		"/>
	<path class="st0" d="M86.1,40.4c-7.3,0-13.5-5.1-13.5-14.2c0-8.9,6.2-14.2,13.5-14.2c6,0,10.8,3,12.4,8.4L92.8,22
		c-0.7-2.3-3.2-4.6-6.8-4.6c-4,0-7.4,3.2-7.4,8.7c0,5.7,3.3,8.9,7.4,8.9c3.4,0,5.9-1.6,6.8-4.3h-6.2v-4.9H99v1.3
		C99,36.3,92.6,40.4,86.1,40.4z"/>
	<path class="st0" d="M122.4,39.9h-19V12.5h18.8v5.2h-12.9v4.8h12v5.2h-12v7.1h13.2V39.9z"/>
	<path class="st0" d="M125.5,26.2c0-8.9,6.3-14.2,13.5-14.2c7.3,0,13.5,5.2,13.5,14.2c0,9.1-6.3,14.2-13.5,14.2
		C131.8,40.4,125.5,35.3,125.5,26.2z M146.5,26.2c0-5.4-3.4-8.7-7.5-8.7c-4.1,0-7.5,3.3-7.5,8.7c0,5.6,3.5,8.8,7.5,8.8
		C143.1,34.9,146.5,31.8,146.5,26.2z"/>
	<path class="st0" d="M169.1,40.4c-7.3,0-13.5-5.1-13.5-14.2c0-8.9,6.2-14.2,13.5-14.2c6,0,10.8,3,12.4,8.4l-5.6,1.6
		c-0.7-2.3-3.2-4.6-6.8-4.6c-4,0-7.4,3.2-7.4,8.7c0,5.7,3.3,8.9,7.4,8.9c3.4,0,5.9-1.6,6.8-4.3h-6.2v-4.9H182v1.3
		C182,36.3,175.6,40.4,169.1,40.4z"/>
	<path class="st0" d="M195.7,28.6h-3.5v11.4h-5.8V12.5H198c4.9,0,8.7,3.1,8.7,7.9c0,2.3-0.6,4-2.1,5.5c-0.8,0.8-1.8,1.5-2.9,1.9
		l7,12.1H202L195.7,28.6z M192.2,23.5h5.3c1.9,0,3.2-1.1,3.2-3c0-1.7-1.4-2.9-3.3-2.9h-5.3V23.5z"/>
	<path class="st0" d="M226.7,32.5h-8.5l-2.6,7.5h-6.1l9.7-27.5h6.8l9.7,27.5h-6.4L226.7,32.5z M219.6,27.3h5.7l-2.8-8.7h-0.1
		L219.6,27.3z"/>
	<path class="st0" d="M244.8,29.1v10.8h-5.8V12.5h11.2c4.9,0,8.7,2.9,8.7,8.3c0,5.4-4,8.3-8.9,8.3H244.8z M244.8,23.9h4.6
		c2.1,0,3.3-1.2,3.3-3.1c0-1.9-1.4-3.2-3.4-3.2h-4.6V23.9z"/>
	<path class="st0" d="M280.4,26.5h-11.9v13.5h-5.9V12.5h5.9v8.8h11.9v-8.8h5.9v27.5h-5.9V26.5z"/>
	<path class="st0" d="M292.1,12.5h5.9v27.5h-5.9V12.5z"/>
	<path class="st0" d="M322.7,39.9h-19V12.5h18.8v5.2h-12.9v4.8h12v5.2h-12v7.1h13.2V39.9z"/>
</g>
<g>
	<path class="st0" d="M108.8,44.6h9.8c6.7,0,13.1,4.3,13.1,13.5c0,9.5-6.4,13.9-13.2,13.9h-9.8V44.6z M118.4,66.9
		c4.4,0,7.3-3.2,7.3-8.8c0-5.1-3.1-8.4-7.5-8.4h-3.6v17.1H118.4z"/>
	<path class="st0" d="M136,61.6v-17h5.9v16.7c0,3.6,2,5.7,5.2,5.7c3.3,0,5.2-2.1,5.2-5.7V44.6h5.9v17c0,7.3-4.4,10.9-11.1,10.9
		C140.4,72.5,136,69,136,61.6z"/>
	<path class="st0" d="M178.8,61.2v10.8h-5.8V44.6h11.2c4.9,0,8.7,2.9,8.7,8.3c0,5.4-4,8.3-8.9,8.3H178.8z M178.8,56h4.6
		c2.1,0,3.3-1.2,3.3-3.1c0-1.9-1.4-3.2-3.4-3.2h-4.6V56z"/>
	<path class="st0" d="M195.3,58.3c0-8.9,6.3-14.2,13.5-14.2c7.3,0,13.5,5.2,13.5,14.2c0,9.1-6.3,14.2-13.5,14.2
		C201.6,72.5,195.3,67.4,195.3,58.3z M216.3,58.3c0-5.4-3.4-8.7-7.5-8.7c-4.1,0-7.5,3.3-7.5,8.7c0,5.6,3.5,8.8,7.5,8.8
		C212.9,67,216.3,63.9,216.3,58.3z"/>
	<path class="st0" d="M236,60.7h-3.5v11.4h-5.8V44.6h11.7c4.9,0,8.7,3.1,8.7,7.9c0,2.3-0.6,4-2.1,5.5c-0.8,0.8-1.8,1.5-2.9,1.9
		l7,12.1h-6.8L236,60.7z M232.6,55.6h5.3c1.9,0,3.2-1.1,3.2-3c0-1.7-1.4-2.9-3.3-2.9h-5.3V55.6z"/>
	<path class="st0" d="M264.1,49.8v22.3h-5.9V49.8h-8v-5.2h21.9v5.2H264.1z"/>
	<path class="st0" d="M275.5,61.6v-17h5.9v16.7c0,3.6,2,5.7,5.2,5.7c3.3,0,5.2-2.1,5.2-5.7V44.6h5.9v17c0,7.3-4.4,10.9-11.1,10.9
		C279.9,72.5,275.5,69,275.5,61.6z"/>
	<path class="st0" d="M315.4,72.5c-7.3,0-13.5-5.1-13.5-14.2c0-8.9,6.2-14.2,13.5-14.2c6,0,10.8,3,12.4,8.4l-5.6,1.6
		c-0.7-2.3-3.2-4.6-6.8-4.6c-4,0-7.4,3.2-7.4,8.7c0,5.7,3.3,8.9,7.4,8.9c3.4,0,5.9-1.6,6.8-4.3h-6.2v-4.9h12.3v1.3
		C328.3,68.4,321.9,72.5,315.4,72.5z"/>
	<path class="st0" d="M347.5,64.6H339l-2.6,7.5h-6.1l9.7-27.5h6.8l9.7,27.5h-6.4L347.5,64.6z M340.4,59.4h5.7l-2.8-8.7h-0.1
		L340.4,59.4z"/>
	<path class="st0" d="M359.7,44.6h5.9v22.3h11.7v5.2h-17.6V44.6z"/>
</g>
</svg>
