<?xml version="1.0" encoding="utf-8"?>
<!-- Generator: Adobe Illustrator 20.1.0, SVG Export Plug-In . SVG Version: 6.00 Build 0)  -->
<svg version="1.1" id="Calque_1" xmlns="http://www.w3.org/2000/svg" xmlns:xlink="http://www.w3.org/1999/xlink" x="0px" y="0px"
	 viewBox="0 0 230.3 40" style="enable-background:new 0 0 230.3 40;" xml:space="preserve">
<style type="text/css">
	.st0{fill:#636363;}
</style>
<g>
	<path class="st0" d="M57.5,21.8h6.3c4.3,0,8.4,2.8,8.4,8.7c0,6.1-4.1,8.9-8.5,8.9h-6.3V21.8z M63.6,36.1c2.8,0,4.7-2,4.7-5.6
		c0-3.3-2-5.4-4.8-5.4h-2.3v11H63.6z"/>
	<path class="st0" d="M74.9,32.7V21.8h3.8v10.7c0,2.3,1.3,3.7,3.4,3.7c2.1,0,3.4-1.3,3.4-3.7V21.8h3.8v10.9c0,4.7-2.8,7-7.2,7
		C77.7,39.7,74.9,37.4,74.9,32.7z"/>
	<path class="st0" d="M102.4,32.5v7h-3.8V21.8h7.2c3.1,0,5.6,1.9,5.6,5.3c0,3.5-2.6,5.3-5.7,5.3H102.4z M102.4,29.2h3
		c1.4,0,2.1-0.8,2.1-2c0-1.2-0.9-2-2.2-2h-2.9V29.2z"/>
	<path class="st0" d="M113,30.6c0-5.7,4-9.1,8.7-9.1c4.7,0,8.7,3.4,8.7,9.1c0,5.8-4.1,9.1-8.7,9.1C117,39.7,113,36.5,113,30.6z
		 M126.5,30.6c0-3.5-2.2-5.6-4.8-5.6c-2.6,0-4.8,2.1-4.8,5.6c0,3.6,2.2,5.6,4.8,5.6C124.3,36.2,126.5,34.2,126.5,30.6z"/>
	<path class="st0" d="M139.1,32.1h-2.2v7.3h-3.7V21.8h7.5c3.1,0,5.6,2,5.6,5.1c0,1.5-0.4,2.5-1.4,3.6c-0.5,0.5-1.2,1-1.9,1.2
		l4.5,7.8h-4.3L139.1,32.1z M136.9,28.9h3.4c1.2,0,2.1-0.7,2.1-1.9c0-1.1-0.9-1.8-2.1-1.8h-3.4V28.9z"/>
	<path class="st0" d="M157.2,25.1v14.3h-3.8V25.1h-5.2v-3.3h14.1v3.3H157.2z"/>
	<path class="st0" d="M164.5,32.7V21.8h3.8v10.7c0,2.3,1.3,3.7,3.4,3.7c2.1,0,3.4-1.3,3.4-3.7V21.8h3.8v10.9c0,4.7-2.8,7-7.2,7
		C167.3,39.7,164.5,37.4,164.5,32.7z"/>
	<path class="st0" d="M190.1,39.7c-4.7,0-8.7-3.3-8.7-9.1c0-5.7,4-9.1,8.6-9.1c3.9,0,6.9,1.9,7.9,5.4l-3.6,1.1
		c-0.5-1.5-2-2.9-4.3-2.9c-2.6,0-4.7,2.1-4.7,5.6c0,3.7,2.1,5.7,4.8,5.7c2.2,0,3.8-1.1,4.3-2.8h-4v-3.2h7.9v0.9
		C198.3,37.1,194.3,39.7,190.1,39.7z"/>
	<path class="st0" d="M210.7,34.6h-5.5l-1.7,4.8h-3.9l6.2-17.6h4.4l6.2,17.6h-4.1L210.7,34.6z M206.1,31.3h3.6l-1.8-5.6h-0.1
		L206.1,31.3z"/>
	<path class="st0" d="M218.6,21.8h3.8v14.3h7.5v3.3h-11.3V21.8z"/>
</g>
<g>
	<path class="st0" d="M1.1,0.4h3.8v14.3h7.5V18H1.1V0.4z"/>
	<path class="st0" d="M24.3,13.2h-5.5L17.1,18h-3.9l6.2-17.6h4.4L30,18h-4.1L24.3,13.2z M19.7,9.9h3.6l-1.8-5.6h-0.1L19.7,9.9z"/>
	<path class="st0" d="M45.9,18.3c-4.7,0-8.7-3.3-8.7-9.1c0-5.7,4-9.1,8.6-9.1c3.9,0,6.9,1.9,7.9,5.4l-3.6,1.1
		c-0.5-1.5-2-2.9-4.3-2.9c-2.6,0-4.7,2.1-4.7,5.6c0,3.7,2.1,5.7,4.8,5.7c2.2,0,3.8-1.1,4.3-2.8h-4V9h7.9v0.9
		C54.1,15.7,50,18.3,45.9,18.3z"/>
	<path class="st0" d="M69.2,18H57V0.4H69v3.3h-8.3v3.1h7.7v3.3h-7.7v4.6h8.5V18z"/>
	<path class="st0" d="M71.2,9.2c0-5.7,4-9.1,8.7-9.1c4.7,0,8.7,3.4,8.7,9.1c0,5.8-4.1,9.1-8.7,9.1C75.2,18.3,71.2,15.1,71.2,9.2z
		 M84.7,9.2c0-3.5-2.2-5.6-4.8-5.6c-2.6,0-4.8,2.1-4.8,5.6c0,3.6,2.2,5.6,4.8,5.6C82.5,14.8,84.7,12.8,84.7,9.2z"/>
	<path class="st0" d="M99.2,18.3c-4.7,0-8.7-3.3-8.7-9.1c0-5.7,4-9.1,8.6-9.1c3.9,0,6.9,1.9,7.9,5.4l-3.6,1.1
		c-0.5-1.5-2-2.9-4.3-2.9c-2.6,0-4.7,2.1-4.7,5.6c0,3.7,2.1,5.7,4.8,5.7c2.2,0,3.8-1.1,4.3-2.8h-4V9h7.9v0.9
		C107.4,15.7,103.3,18.3,99.2,18.3z"/>
	<path class="st0" d="M116.2,10.7H114V18h-3.7V0.4h7.5c3.1,0,5.6,2,5.6,5.1c0,1.5-0.4,2.5-1.4,3.6c-0.5,0.5-1.2,1-1.9,1.2l4.5,7.8
		h-4.3L116.2,10.7z M114,7.5h3.4c1.2,0,2.1-0.7,2.1-1.9c0-1.1-0.9-1.8-2.1-1.8H114V7.5z"/>
	<path class="st0" d="M136.1,13.2h-5.5L129,18H125l6.2-17.6h4.4l6.2,17.6h-4.1L136.1,13.2z M131.6,9.9h3.6l-1.8-5.6h-0.1L131.6,9.9z
		"/>
	<path class="st0" d="M147.7,11.1v7H144V0.4h7.2c3.1,0,5.6,1.9,5.6,5.3c0,3.5-2.6,5.3-5.7,5.3H147.7z M147.7,7.8h3
		c1.4,0,2.1-0.8,2.1-2c0-1.2-0.9-2-2.2-2h-2.9V7.8z"/>
	<path class="st0" d="M170.6,9.4H163V18h-3.8V0.4h3.8v5.7h7.6V0.4h3.8V18h-3.8V9.4z"/>
	<path class="st0" d="M178.1,0.4h3.8V18h-3.8V0.4z"/>
	<path class="st0" d="M197.8,18h-12.2V0.4h12.1v3.3h-8.3v3.1h7.7v3.3h-7.7v4.6h8.5V18z"/>
</g>
</svg>
