<?xml version="1.0" encoding="utf-8"?>
<!-- Generator: Adobe Illustrator 20.1.0, SVG Export Plug-In . SVG Version: 6.00 Build 0)  -->
<svg version="1.1" id="Calque_1" xmlns="http://www.w3.org/2000/svg" xmlns:xlink="http://www.w3.org/1999/xlink" x="0px" y="0px"
	 viewBox="0 0 734.1 705.6" style="enable-background:new 0 0 734.1 705.6;" xml:space="preserve">
<style type="text/css">
	.st0{fill:#E5E5E5;stroke:#FFFFFF;stroke-miterlimit:10;}
	.st1{fill:#006600;stroke:#FFFFFF;stroke-miterlimit:10;}
	.st2{fill:none;stroke:#E53E3E;stroke-width:2;stroke-linecap:round;stroke-linejoin:round;stroke-miterlimit:10;}
</style>
<g id="reste">
	<polygon class="st0" points="364.6,419.2 394.6,406.8 394.6,347.9 309,347.9 299.5,382 289.1,381.9 289.1,431.7 304.6,439.9 
		296.4,465.8 317.3,467.8 329.5,478.3 364.8,476.6 364.8,462.3 380.2,458.1 379.2,449.7 363.4,432.9 	"/>
	<polygon class="st0" points="243.8,387.1 228.8,386.1 224.1,398 205.9,403.2 213.7,409.4 200.2,412.5 184.6,395.9 174.3,398.5 
		178.4,421.4 142.1,404.7 134.3,418.2 162.3,441.6 169.1,480.5 148.3,520.5 210.1,557.4 225.1,536.6 258.9,554.3 279.6,544.9 
		273.4,531.4 280.7,510.6 277.6,490.4 263.6,493 282.8,465.8 296.4,465.8 304.6,439.9 289.1,431.7 254.7,407.3 	"/>
	<polygon class="st0" points="354.3,485.9 371,498.9 374.7,514.1 350.1,521.2 350.1,544 371.1,562.3 376.5,582.4 439.1,627.6 
		434.6,636.1 420.3,622.6 410.9,637.8 420.3,653.5 401.5,675.8 394.4,671.8 401.5,656.2 397.5,636.1 324.2,569.9 319.3,544.9 
		304.6,533.7 279.6,544.9 273.4,531.4 280.7,510.6 279.2,501.1 294.6,501.1 300.1,493.9 306.9,502.8 314.1,492.9 322.7,498.4 
		329.5,488.4 	"/>
	<path class="st0" d="M380.2,458.1l-15.4,4.2v14.3l-35.3,1.7v10.1l24.8-2.5l16.6,13l6.3,3.9l17.4-5.3l16.9-1.5l11.5-24.3
		c0,0-0.8-11.1-3.8-13.7c-3.1-2.5-21.4-10.2-21.4-10.2L380.2,458.1z"/>
	<polygon class="st0" points="394.6,406.8 394.6,347.9 426.9,336.4 443,336.4 447.1,343.6 457.8,341.8 500.7,345.4 509.6,371.6 
		501.3,382.3 514.4,421 497.7,437.6 497.7,450.7 476.9,441.8 462,444.8 	"/>
	<path class="st0" d="M415.8,456.3l-18.5-8.4l-17.6,10.2l-1-8.4L363,432.9l1.2-13.6l30-12.4l57.5,32.4c0,0-16.1,13.4-17.4,13.4
		S415.8,456.3,415.8,456.3z"/>
	<polygon class="st0" points="470.1,509.2 500.8,471.7 534,475.4 554.5,465.8 574.3,491.3 574.3,514.9 582.6,521.3 597.3,514.9 
		600.5,525.8 589,525.8 587.8,550.1 555.8,546.2 543.6,557.4 505.3,557.4 497.6,536.6 482.3,536 	"/>
	<polygon class="st0" points="508.8,269.6 519.2,269.6 526.9,275.1 542.2,275.1 553.3,300.8 535.3,311.3 514.4,300.1 481.7,301.5 
		473.4,311.3 473.4,283.5 484.5,274.4 507.4,290.4 	"/>
	<polygon class="st0" points="403.9,527.3 410.9,534.9 418.5,527.3 451.7,534.9 454.5,562 444.2,562 436.6,580.9 403.9,548.1 	"/>
	<polygon class="st0" points="500.8,471.9 470.1,509.3 454.5,509.3 439.1,518.2 411.5,496.2 423,471.9 444.3,478.3 444.3,468.4 
		470.1,458.1 485.2,458.1 	"/>
	<path class="st0" d="M495.7,449.4l-17.8-7.6l-14.9,3l-16.5-9.3h-0.5l6.6,3.7c0,0-16.1,13.4-17.4,13.4c-1.2,0-15.8,3.1-18.2,3.6
		c1.4,0.7,2.5,1.4,3.1,1.8c3.1,2.5,3.8,13.7,3.8,13.7l-3.1,6.6h0.1l3-6.4l21.3,6.4v-9.9l25.8-10.3h14l4.7,4.2L495.7,449.4z"/>
	<polygon class="st0" points="554.5,465.8 574.3,491.3 574.3,514.9 588.4,496.7 600.5,496 589,475.4 587.4,465.8 561.6,458.1 	"/>
	<polygon class="st0" points="507.5,400.5 501.3,382.3 509.6,371.6 500.8,345.7 518.4,347.2 519.4,342.3 527.2,342.5 535.3,311.3 
		553.2,300.7 587,304.8 587,328 612.3,347.9 612.3,357.7 600.5,359.8 604.8,377.1 591.8,393.6 527.2,391.1 	"/>
	<path class="st0" d="M500.8,300.7"/>
	<g>
		<polygon class="st0" points="509.6,371.6 508.4,368 508.4,368 		"/>
		<polygon class="st0" points="600.3,495.5 589,475.4 587.4,465.8 561.6,458.1 554.5,465.8 534,475.4 500.8,471.7 500.7,471.8 
			489.9,462.2 495.5,449.8 497.7,450.7 497.7,437.6 514.4,421 507.5,400.5 527.2,391.1 591.8,393.6 604.8,377.1 631.1,369.8 
			650.6,386.1 662,400.5 687.2,396.3 724.9,406.8 724.9,440.4 713.6,442.9 708.6,458.1 641.2,495.5 625.5,478.3 		"/>
	</g>
	<polygon class="st0" points="600.3,495.5 588.4,496.7 574.3,514.9 582.2,520.9 583.5,520.9 597.3,514.9 599.1,520.9 607.4,499.8 	
		"/>
	<polygon class="st0" points="508.8,269.6 519.2,269.6 526.9,275.1 542.2,275.1 542.2,236.5 509.6,238.6 498.3,244.5 500.8,261 
		509.6,260.5 	"/>
	<polygon class="st0" points="518.4,347.2 519.4,342.3 527.2,342.5 535.3,311.3 515.5,300.7 500.8,300.7 481.7,301.5 473.4,311.3 
		473.4,327.1 492.4,327.1 492.4,344.7 500.7,345.4 	"/>
	<polygon class="st0" points="473.4,327.1 492.4,327.1 492.4,344.7 498.3,345.2 498.3,345.2 457.8,341.8 461.9,331.8 470.1,332.2 	
		"/>
	<polygon class="st0" points="281,390.1 265.6,381.9 242.9,387.1 253.8,407.3 283.3,428.2 288.2,428.2 289.1,400.5 	"/>
	<polygon class="st0" points="265.6,381.9 281,390.1 283.7,393.6 289.1,393.6 289.1,381.9 299.5,382 308.2,350.6 282.5,350.6 	"/>
	<polygon class="st0" points="225.7,376.8 138.5,372.1 163.6,350.6 149.2,345.2 168.1,327.1 188.8,324 191.5,284.2 176.2,284.2 
		182.1,241 199.6,217.7 219.5,217.7 203.2,236.5 225.7,246.4 201.4,269.6 215.8,275.1 225.7,345.2 237.3,345.2 	"/>
	<polygon class="st0" points="113.3,281.5 147.4,269.6 166.3,275.1 166.3,297.2 149.2,297.2 143.8,327.1 97.1,327.1 	"/>
	<polygon class="st0" points="489.9,108 508.4,117 473.4,170.9 478.1,217.7 535.3,217.7 566.4,166.4 553.3,141.3 524.1,53.1 
		520.2,30.7 504.4,30.7 504.4,53.1 473.4,45.1 484.6,65.7 	"/>
	<polygon class="st0" points="463.9,58.5 445.9,64.8 423,99.9 411.5,143 394.6,152.9 389.3,198.8 370.4,247.3 383.9,324 
		417.2,307.6 429.2,259.9 445,236.5 429.2,213.2 439.1,174.5 470.1,143.9 473.7,108 490.2,108 484.9,65.7 473.7,45.1 	"/>
	<g>
		<polygon class="st0" points="524.1,53.1 520.2,30.7 504.4,30.7 504.4,53.1 473.8,45.2 473.7,45.1 473.7,45.1 473.4,45.1 
			473.5,45.3 463.9,58.5 445.9,64.8 423,99.9 411.5,143 394.6,152.9 389.3,198.8 370.4,247.3 356.3,232 324,255.8 308.2,236.5 
			324,171.9 376.3,135.4 439.1,41.6 498.3,8.8 542.2,12.4 		"/>
	</g>
	<polygon class="st0" points="115.9,71 143.8,79.3 181,75.1 181,35.8 148.5,30.7 127.2,8.8 101.4,35.8 	"/>
	<path class="st0" d="M411.5,496.2"/>
	<polygon class="st0" points="374.7,514.1 371,498.9 377.2,502.8 394.6,497.6 411.5,496.1 399.8,508.2 394.6,524.7 	"/>
	<path class="st0" d="M403.9,548.1v-20.8l6.9,7.6l7.6-7.6l33.2,7.6l-3.6-12.5l-8.1-4.1l-21.4-17h-11.1l-6.9,7.1l-5.1,16.5l-16.1-8.6
		l-8.5,12.5h15.8l17.2,33.3l28.9,20.8l3.8-2.1L403.9,548.1z"/>
	<polygon class="st0" points="502.1,548.8 497.6,536.6 482.3,536 470.2,509.3 470.1,509.3 454.5,509.3 439.4,518 440,518.4 
		448.1,522.5 451.7,534.9 454.5,562 465.2,575.4 470.8,569.4 483.9,577.1 483.9,587.4 498.8,587.4 498.8,572.8 506.2,568.2 
		495.7,560.3 	"/>
	<path class="st0" d="M464.6,639.4l13.3-10.5v-10.9l28.3-11.7l19.4-8.6c0,0,14.1,5.1,16.8,4.3s12.2-7.8,12.2-7.8l8.5,2.3l-5.9,16.4
		l-16-2.3l-20.3,4.3l2.3,10.5l-9.4,3.1l-13-4.7l8,19.9l-2.6,12.9l17,12.1l-7,7.1l-15.4-6.8l-17-2.7L464.6,639.4z"/>
	<polygon class="st0" points="571.1,587.4 582.1,587.4 584.4,596 598.2,599.2 598.2,606.1 583.5,606.1 577.5,610.2 566.5,618.1 
		557.2,612.8 563,596.4 554.5,594.1 	"/>
	<path class="st0" d="M505.3,557.4h38.4l12.1-11.1l32,3.8l3.1,9.2l-13.3,4.6l-1.2,13.8l5.8,9.7h-11l-16.6,6.7c0,0-9.4,7-12.2,7.8
		c-2.7,0.8-16.8-4.3-16.8-4.3l-19.4,8.6l0-12.1l-7.4-6.7v-14.6l7.4-4.5l-10.5-7.9l6.4-11.5"/>
	<polygon class="st0" points="470.1,610.1 472.8,592.3 462.2,580.9 454.5,583 454.5,597.4 456.4,606.2 454.5,628.4 464.6,639.4 
		477.9,628.8 477.9,617.9 	"/>
	<polygon class="st0" points="472.8,592.3 470.1,610.1 477.9,617.9 506.2,606.2 506.2,594.1 498.8,587.4 483.9,587.4 	"/>
	<polygon class="st0" points="462.9,581.6 472.8,592.3 483.9,587.4 483.9,587.4 483.9,577.1 470.8,569.4 465.2,575.4 	"/>
	<polyline class="st0" points="454.5,562 465.2,575.4 462.9,581.6 466.2,585.2 466.2,585.2 462.2,580.9 454.5,583 454.5,597.4 
		436.6,580.9 444.2,562 454.5,562 	"/>
	<path class="st0" d="M148.3,520.5l61.8,36.9v12l-38.3,6.8l-25,26.5l7.2,19l-49.2,25L71,635l-22.3,8.4l-3-21.6l-16.5-11.6l8.4-20.8
		l8.1-20L71,533.2c0,0-25.3-19-30.4-18.3l3-26.8l23.3-2.2L148.3,520.5z"/>
	<polygon class="st0" points="283.9,606.2 300.2,602.6 304.6,612.9 300.9,639.4 283.9,641.9 	"/>
	<polygon class="st0" points="294.3,569.4 304.6,569.4 304.6,592.3 294.3,587.4 	"/>
	<polygon class="st0" points="341.9,675.8 356.3,663.9 367.4,675.8 387.3,669.8 383.7,695.7 	"/>
	<path class="st0" d="M563,646.8l63.5-40.6l45.4-36.8l53,10.3l61.3-25.6l23.5-5.8l38.7,86.6c0,0-117.5,25.4-123.5,28.9
		c-6,3.6-53,31.9-53,31.9l-37-19.9l-15.1,26.9L563,646.8z"/>
</g>
<path id="portugal" class="st1" d="M41.9,514.4c5.2-0.7,31.1,18.8,31.1,18.8l-25.9,37l-16.8,41.7l-22-4l14.2-27.1L8.3,570.2
	L41.9,514.4z"/>
<g id="switzerland">
	<polygon class="st2" points="278.1,472.6 278.1,490.1 278.2,490 279.9,501 283.2,501 283.2,465.4 	"/>
	<polygon class="st2" points="283.5,464.9 283.2,465.4 283.2,501 288.3,501 288.3,464.9 	"/>
	<polygon class="st2" points="297.4,464.9 293.4,464.9 293.4,501 295.7,501 298.5,497.3 298.5,465 	"/>
	<rect x="288.3" y="464.9" class="st2" width="5.1" height="36.1"/>
	<polygon class="st2" points="267.9,487 267.9,491.9 273,491 273,479.8 	"/>
	<polygon class="st2" points="263.9,492.7 267.9,491.9 267.9,487 	"/>
	<polygon class="st2" points="273,479.8 273,491 278.1,490.1 278.1,472.6 	"/>
	<polygon class="st2" points="318.8,467 318.8,467 318.8,494.6 323.9,497.9 323.9,471.3 	"/>
	<polygon class="st2" points="323.9,471.3 323.9,497.9 324.4,498.2 329,491.5 329,475.7 	"/>
	<polygon class="st2" points="298.5,465 298.5,497.3 301.3,493.7 303.5,496.6 303.5,465.5 	"/>
	<polygon class="st2" points="329,491.5 331.4,488 331.4,477.7 329,475.7 	"/>
	<polygon class="st2" points="303.5,465.5 303.5,496.6 308.2,502.7 308.6,502.1 308.6,466 	"/>
	<polygon class="st2" points="308.6,466 308.6,502.1 313.7,495.1 313.7,466.5 	"/>
	<polygon class="st2" points="313.7,466.5 313.7,495.1 315.5,492.6 318.8,494.6 318.8,467 	"/>
</g>
</svg>
