<?xml version="1.0" encoding="utf-8"?>
<!-- Generator: Adobe Illustrator 20.1.0, SVG Export Plug-In . SVG Version: 6.00 Build 0)  -->
<svg version="1.1" id="regionportugal" xmlns="http://www.w3.org/2000/svg" xmlns:xlink="http://www.w3.org/1999/xlink" x="0px"
	 y="0px" viewBox="0 0 261.2 517.2" style="enable-background:new 0 0 261.2 517.2;" xml:space="preserve">
<style type="text/css">
	.portugalcarte{fill:#006600;stroke:#FFFFFF;stroke-miterlimit:10;}
	
	.portugalcarte{
	animation-name:hide;
	animation-duration: 3s;
	fill:#006600;
	stroke:#ffffff;
	stroke-width:1;stroke-linejoin:round;}
	
	.portugalcarte:hover{
	fill:#6BB56B;
	stroke:#ffffff;
	stroke-width:1;stroke-linejoin:round;}
	
	@keyframes hide {
	
				
				0% {
					opacity:0;
				}
				
				100%{
				opacity:1;}
			}
			
			
	 
</style>
<path id="portugalcarte_2_" class="portugalcarte" d="M66.3,430.4l-4.9,5.9l-3.8,16.9l2.7,12.2h0l-7.9,13.9l-5.3,18.9l23.4-3.6l1.3-5.6
	l47.3,10.7l-0.9,3.9l11.5,0l30.6-17.8l-8.1-30.9h-0.3l4.5-5.4l-1.4-7.9l19.9-31.1l10.1-0.4l11.1-15.3l-14-0.8l-5.2-12.9l-11.3-12.8
	l8.5-31.2l22.1-22.1l-7.9-11.2l-5.5,3.8l-17.4-25l5.3-3.7L151,251.4l40.4-4.3l9.6-28.4l-11.6-10.5l4.6-14.1l9.6,0.4l1.3-53.7
	l-6.3-23l0.1-0.1l48.2-42.2V61.4l-2.8-4.5h-20.6V28.1l-43.6-2.7l-3.1,12.5l-56.5-4l-9.6,2.3l-0.1-0.1l-2.8,0.7l0-0.2l0-0.1l0,0
	l-5.6-23.5l-13.1-1.3L49.7,36.6l0,0.1l6.2,25.5l0,0l5,20.6v0.1l7.6,31.1l0.4,2.7L63,138.5l10.1,3.9l-6.8,17.7l-6.8-2.6v12.3
	l-8.1,25.9v20.1l-33.5,70.4l2.1,1.6L6.8,331.9v10.5l25.7,0.2l3.2-4.4l9.5-21.8l9.1-3.2l-0.2,3.4L49.7,327l-0.6,14.2l-21.6,7.6
	l2.7,18.2l40.4-8.3l0,0l2.1,1l-14,9.2L53,412.4L66.3,430.4L66.3,430.4"/>
</svg>
