<?xml version="1.0" encoding="utf-8"?>
<!-- Generator: Adobe Illustrator 20.1.0, SVG Export Plug-In . SVG Version: 6.00 Build 0)  -->
<svg version="1.1" id="Calque_1" xmlns="http://www.w3.org/2000/svg" xmlns:xlink="http://www.w3.org/1999/xlink" x="0px" y="0px"
	 viewBox="0 0 396 253.4" style="enable-background:new 0 0 396 253.4;" xml:space="preserve">
<style type="text/css">
	.zurich, .tessin, .oriental, .nordouest, .lemanique, .central, .mitteland{fill:#E53E3E;stroke:#FFFFFF;stroke-miterlimit:10;}

.zurich, .tessin, .oriental, .nordouest, .lemanique, .central, .mitteland{
	animation-name:hide;
	animation-duration: 3s;
	fill:#E53E3E;
	stroke:#ffffff;
	stroke-width:1;stroke-linejoin:round;}
	
	
	.zurich:hover, .tessin:hover, .oriental:hover, .nordouest:hover, .lemanique:hover, .central:hover, .mitteland:hover{
	fill:#FF8F8F;
	stroke:#ffffff;
	stroke-width:1;stroke-linejoin:round;}
	
@keyframes hide {
0% {
opacity:0;
}
100%{
opacity:1;}
}


.un, .deux, .trois, .quatre, .cinq, .six, .sept{fill:#ffffff;}


</style>
<polygon id="zurich" class="zurich" points="233.7,18.6 256.1,40.4 265.3,65.7 248.5,79.2 238.3,86.1 213.9,74.3 218.2,66.4 
	210.7,43.3 222.8,27.2 231.1,28.2 "/>
<polyline id="lemanique" class="lemanique" points="76.7,181.2 74.4,211.2 104.3,249.3 140.9,234.5 166.9,241.8 193.2,215.1 187.9,197.3 
	219.5,168.4 213.6,148.6 200.4,165.1 183,160.8 172.5,172.7 117.2,186.8 112.3,191.6 112.7,163.1 92.3,176 87.7,168.4 77.5,167.7 
	83.7,159.2 73.9,158.5 93.6,122.6 99.5,122 97.9,108.8 95.1,103.5 71.2,121.3 64,113.8 50.5,123.6 44.6,121.7 44.2,133.4 
	14.4,156.5 17.9,161.1 9.9,176.3 15.5,184.8 15.5,184.8 14.5,199.7 1.7,200.3 0,210.2 16.8,211.8 31.6,200.6 26.7,198.7 24.4,186.2 
	24.4,186.2 32,172.9 60,166.1 85.7,180.7 76.7,181.2 "/>
<polygon id="tessin" class="tessin" points="281.8,212.1 270,196.7 274.9,173.9 261.4,151.9 240,160.5 238.9,152.4 217.9,162.5 
	219.6,168.4 212.1,175.2 220.5,174.5 218.1,200.6 240.4,221.3 255,221.7 250.3,234.9 262.6,252.8 276,245 267.5,228.4 "/>
<polygon id="central" class="central" points="263.1,110.8 257.3,102.9 266.2,84.5 248.5,79.2 238.3,86.1 238.3,86.2 215.2,75 
	211.5,82.4 204.1,71 185,73.9 166.6,76.6 168.2,97.3 176.8,107.5 167.5,125.3 184.3,132.8 184.3,132.8 184.4,132.8 191,136.9 
	210.6,133.5 218.8,136 213.7,148.8 217.9,162.6 238.8,152.5 238,146.4 256.7,129.3 263.6,127 261.6,115.9 "/>
<g id="oriental">
	<polygon class="oriental" points="236.2,20.7 233.7,18.5 224.6,23.8 214.2,18.9 228.7,2.6 243.3,10.8 242.5,19 256.5,24.7 266.6,20.6 
		285,24.3 303.8,42.7 323,46.3 321.8,57.1 307.7,82.9 311.7,91.8 306.9,97.7 341.3,101.2 343.3,114.1 366.7,123.6 384.8,103.9 
		397.3,113.4 395.6,162.8 363.4,153.2 359.1,176.9 370.3,200 360.7,203.6 346.6,184.5 319.6,196 304.5,171.3 289.6,174.3 
		292.9,192.7 281.7,212.2 269.9,196.7 274.8,174 261.3,151.9 239.9,160.5 238,146.3 256.7,129.2 263.6,126.9 261.7,115.9 
		263.1,110.8 257.3,102.9 266.1,84.6 266,84.6 248.3,79.3 265.1,65.8 261.1,54.9 261.4,54.8 256.2,40.3 	"/>
</g>
<path id="mitteland" class="mitteland" d="M121.5,50.6H111l0.3-7.9l-15.8-0.3L83.6,58.5l11.5,0.3l3.6,3.3L81,81.8v2.6L68.8,98.3
	l-25.3,11.8l1,11.5l5.9,2l13.5-9.9l7.2,7.6l24-17.9l2.8,5.3h-0.2l1.6,13.2l-5.9,0.7l-19.7,35.9l9.9,0.7l-6.3,8.6l10.2,0.7l4.6,7.6
	l20.4-12.8l-0.2,22.1l-0.2,6.5l5.1-4.9l55.3-14.2L183,161l17.4,4.3l13.2-16.5l5.1-12.7l-8.2-2.3L191,137l-6.6-4.1l-16.8-7.6
	l9.2-17.8l-8.6-10.2l-1.6-20.7l1.1-0.2l-2.4-3.7h-0.2l7.2-9.8l6.8,4.5l5.8-8.7l-6.8-9.8l-16.6,14.3L148.6,58l6-13.6h-6l-16.7,12.9
	L121.5,50.6z"/>
<polyline id="nordouest" class="nordouest" points="178,48.8 184.9,58.6 179.1,67.4 172.3,62.9 165.1,72.7 167.8,76.4 185,73.9 
	204.1,70.9 211.6,82.4 215.2,75 214,74.2 218.3,66.3 210.7,43.3 217.6,34.3 196.4,27.2 185.6,35.7 172.9,35.9 165.4,31.4 
	154.1,37.9 154.1,29.8 141.4,33.1 138,42.4 121.5,50.5 131.9,57.2 148.6,44.4 154.6,44.4 148.6,58 161.4,63.1 178,48.8 "/>
<g id="un">
	<path class="un" d="M317,138h-3v-2.3c0.1,0,0.1,0,0.2,0c2.2,0,3.5-0.8,3.9-2.5h2.3v15.1H317V138z"/>
</g>
<g id="deux">
	<path class="deux" d="M123.3,110.3c0-1.2,0.3-2.3,0.8-3.4c1-2.1,2.1-3.1,2.9-3.9c1.1-1.2,2-2.1,2-3.6c0-0.9-0.4-1.4-1.1-1.4
		c-1,0-1.4,0.8-1.4,2.5c0,0.1,0,0.2,0,0.3h-3.1c0-0.1,0-0.3,0-0.4c0-3.2,1.6-5,4.6-5c2.7,0,4.3,1.6,4.3,4.2c0,1.6-0.7,3-2,4.3
		c-1.2,1.2-2.4,2.2-3,3.7h5v3h-9C123.3,110.4,123.3,110.4,123.3,110.3z"/>
</g>
<g id="trois">
	<path class="trois" d="M156.6,213.5c0,1.8,0.3,2.7,1.2,2.7c0.8,0,1.2-0.7,1.2-2.2c0-1.5-0.7-2.1-2.4-2.1c-0.2,0-0.3,0-0.5,0v-2.4
		c0.1,0,0.2,0,0.3,0c1.6,0,2.3-0.6,2.3-2.1c0-1-0.4-1.5-1-1.5c-0.9,0-1.1,0.7-1.1,2.2h-3.1c0-0.1,0-0.1,0-0.2c0-2.8,1.7-4.5,4.4-4.5
		c2.5,0,4.2,1.6,4.2,3.8c0,1.5-0.7,2.6-2.1,3.4c1.7,0.7,2.5,1.8,2.5,3.6c0,2.9-1.7,4.6-4.6,4.6c-2.8,0-4.5-1.8-4.5-4.8
		c0-0.1,0-0.3,0-0.4H156.6z"/>
</g>
<g id="quatre">
	<path class="quatre" d="M221.6,116.6h-5v-2.8l4.7-9.1h3.4v9.4h1.3v2.6h-1.3v2.9h-3.2V116.6z M222,108l-2.7,6h2.7V108z"/>
</g>
<g id="cinq">
	<path class="cinq" d="M243.5,192.1c0,1.6,0.3,2.3,1.2,2.3c0.9,0,1.3-0.7,1.3-2.4c0-2.2-0.2-3.1-1.4-3.1c-0.6,0-1,0.3-1.2,1.1h-2.8
		l0.3-8.2h7.8v2.7h-5.2l-0.1,2.7c0.8-0.5,1.6-0.8,2.5-0.8c2.3,0,3.4,1.7,3.4,5.1c0,3.6-1.5,5.5-4.5,5.5c-2.8,0-4.4-1.7-4.4-4.7
		c0-0.1,0-0.2,0-0.3H243.5z"/>
</g>
<g id="six">
	<path class="six" d="M199.3,48.5c2.2,0,3.3,1.6,3.3,4.7c0,3.6-1.5,5.4-4.5,5.4c-1.5,0-2.6-0.4-3.4-1.3c-1.1-1.2-1.2-3.2-1.2-6.3
		c0-2.7,0.1-4.5,0.6-5.8c0.6-1.3,2-2.1,4-2.1c2.6,0,4.2,1.4,4.2,3.8c0,0,0,0.1,0,0.1h-3.2c0-0.9-0.3-1.4-1-1.4
		c-0.9,0-1.1,0.8-1.1,2.4c0,0.3,0,0.7,0,1.1C197.7,48.7,198.5,48.5,199.3,48.5z M198.1,56c0.9,0,1-0.8,1-2.5c0-1.8-0.2-2.5-1.2-2.5
		c-0.9,0-1.1,0.8-1.1,2.6C196.9,55.3,197.2,56,198.1,56z"/>
</g>
<g id="sept">
	<path class="sept" d="M238,57h-5.6v-3h8.8v2.6c-1.8,3.2-3.1,7.4-3.6,12.3h-3.5C234.5,65.4,235.8,61.4,238,57z"/>
</g>
</svg>
