<?xml version="1.0" encoding="utf-8"?>
<!-- Generator: Adobe Illustrator 20.1.0, SVG Export Plug-In . SVG Version: 6.00 Build 0)  -->
<svg version="1.1" id="regionportugal" xmlns="http://www.w3.org/2000/svg" xmlns:xlink="http://www.w3.org/1999/xlink" x="0px"
	 y="0px" viewBox="0 0 261.2 517.2" style="enable-background:new 0 0 261.2 517.2;" xml:space="preserve">
<style type="text/css">
	.lisboa, .centro, .norte, .alentejo, .algarve{fill:#006600;stroke:#FFFFFF;stroke-miterlimit:10;}

.lisboa, .centro, .norte, .alentejo, .algarve{
	animation-name:hide;
	animation-duration: 3s;
	fill:#006600;
	stroke:#ffffff;
	stroke-width:1;stroke-linejoin:round;}

.lisboa:hover, .centro:hover, .norte:hover, .alentejo:hover, .algarve:hover{
	fill:#6BB56B;
	stroke:#ffffff;
	stroke-width:1;stroke-linejoin:round;}

@keyframes hide {
0% {
	opacity:0;
}
100%{
	opacity:1;}
}


.un, .deux, .trois, .quatre, .cinq{fill:#ffffff;}

</style>
<polygon id="lisboa_2_" class="lisboa" points="28.4,347.8 31.1,366 71.4,357.7 82.3,338.5 82.8,333.8 97.5,328.5 105.1,336.3 
	109.7,335.8 100.5,321.4 92.9,304.3 133.1,260.7 133.1,252.3 128.2,252.8 124.4,244.3 115.2,244.3 115.2,254.1 102.6,255.4 
	98.9,245.2 98.9,239.9 98.1,240.5 84.7,243.8 83,235.5 66.7,238.8 71.5,262.5 61.2,271 56.2,267.5 44.3,284.2 42,286.2 31.7,295.1 
	20.9,286.9 7.7,330.9 7.7,341.3 33.3,341.5 36.6,337.2 46.1,315.4 55.1,312.2 54.9,315.5 50.5,326.1 49.9,340.2 "/>
<polygon id="algarve_1_" class="algarve" points="152.8,453.8 152.5,453.8 130.9,464.2 120.4,464.2 118.4,473.8 98,469.5 99.1,464.2 
	61.1,464.2 53.2,478.1 47.9,496.9 71.3,493.4 72.6,487.8 119.8,498.5 118.9,502.4 130.4,502.4 160.9,484.7 "/>
<path id="norte_1_" class="norte" d="M61.7,82.5l8.5,35h25.3l-0.8-6.2l34.6-4.2l31.6-3.8l21.3-2.6l1.2,9.7l15.8,7.1l0.1-0.1l48.1-42.2
	V61l-2.8-4.5H224V27.8l-43.5-2.7l-3.1,12.4l-56.4-4l-9.6,2.3l-0.1-0.1l-2.8,0.7v-0.2v-0.1l0,0L103,12.6l-13.1-1.3l-39.4,25v0.1
	l6.2,25.4l0,0l5,20.5"/>
<path id="centro_1_" class="centro" d="M204.2,193.9l1.3-53.6l-6.3-23l-15.8-7.1l-1.2-9.7l-13,1.6V102l-8.3,1l-31.6,3.8l-30.9,3.8v0.4
	H95l-0.7,0.1l0.8,6.2H70l-0.3-1.2L63.9,138l10.1,3.9l-6.8,17.6l-6.8-2.6v12.3L52.3,195v20.1l-33.4,70.3l12.9,9.7l12.6-10.9
	l11.9-16.7l5,3.5l10.3-8.5l-4.8-23.7l16.3-3.3l1.7,8.3l13.4-3.3l0.8-0.6v5.3l3.7,10.2l12.5-1.3v-9.8h9.2l3.8,8.5l63.8-6.5l9.6-28.4
	l-11.5-10.4l4.6-14.1L204.2,193.9z"/>
<path id="alentejo_1_" class="alentejo" d="M67.1,429.2l-4.9,5.9L58.4,452l2.7,12.2H99l-1.1,5.3l14.7,3.1l5.7,1.2l2-9.6h10.5l21.6-10.4
	l4.5-5.4l-1.4-7.9l19.8-31l10.1-0.4l11.1-15.3l-14-0.8l-5.2-12.9L166,367.4l8.5-31.1l22.1-22.1l-7.9-11.2l-5.5,3.8l-17.4-25l5.3-3.7
	l-19.5-27.6l-18.5,1.9v8.4l-40.2,43.6l4.3,9.8l3.2,7.1l9.2,14.5l-4.6,0.4l-7.7-7.8l-14.7,5.4l-0.5,4.6l-10.9,19.2l2.1,1l-13.9,9.2
	l-5.7,43.5L67.1,429.2z"/>
<g id="un">
	<path class="un" d="M115,389h-3v-2.3c0.1,0,0.1,0,0.2,0c2.2,0,3.5-0.8,3.9-2.5h2.3v15.1H115V389z"/>
</g>
<g id="deux">
	<path class="deux" d="M135.3,185c0-1.2,0.3-2.3,0.8-3.4c1-2.1,2.1-3.1,2.9-3.9c1.1-1.2,2-2.1,2-3.6c0-0.9-0.4-1.4-1.1-1.4
		c-1,0-1.4,0.8-1.4,2.5c0,0.1,0,0.2,0,0.3h-3.1c0-0.1,0-0.3,0-0.4c0-3.2,1.6-5,4.6-5c2.7,0,4.3,1.6,4.3,4.2c0,1.6-0.7,3-2,4.3
		c-1.2,1.2-2.4,2.2-3,3.7h5v3h-9C135.3,185.1,135.3,185,135.3,185z"/>
</g>
<g id="trois">
	<path class="trois" d="M115.1,73c0,1.8,0.3,2.7,1.2,2.7c0.8,0,1.2-0.7,1.2-2.2c0-1.5-0.7-2.1-2.4-2.1c-0.2,0-0.3,0-0.5,0V69
		c0.1,0,0.2,0,0.3,0c1.6,0,2.3-0.6,2.3-2.1c0-1-0.4-1.5-1-1.5c-0.9,0-1.1,0.7-1.1,2.2h-3.1c0-0.1,0-0.1,0-0.2c0-2.8,1.7-4.5,4.4-4.5
		c2.5,0,4.2,1.6,4.2,3.8c0,1.5-0.7,2.6-2.1,3.4c1.7,0.7,2.5,1.8,2.5,3.6c0,2.9-1.7,4.6-4.6,4.6c-2.8,0-4.5-1.8-4.5-4.8
		c0-0.1,0-0.3,0-0.4H115.1z"/>
</g>
<g id="quatre">
	<path class="quatre" d="M134.4,484.6h-5v-2.8l4.7-9.1h3.4v9.4h1.3v2.6h-1.3v2.9h-3.2V484.6z M134.7,476l-2.7,6h2.7V476z"/>
</g>
<g id="cinq">
	<path class="cinq" d="M74.1,296.6c0,1.6,0.3,2.3,1.2,2.3c0.9,0,1.3-0.7,1.3-2.4c0-2.2-0.2-3.1-1.4-3.1c-0.6,0-1,0.3-1.2,1.1h-2.8
		l0.3-8.2h7.8v2.7H74l-0.1,2.7c0.8-0.5,1.6-0.8,2.5-0.8c2.3,0,3.4,1.7,3.4,5.1c0,3.6-1.5,5.5-4.5,5.5c-2.8,0-4.4-1.7-4.4-4.7
		c0-0.1,0-0.2,0-0.3H74.1z"/>
</g>
</svg>
