<?xml version="1.0" encoding="utf-8"?>
<!-- Generator: Adobe Illustrator 20.1.0, SVG Export Plug-In . SVG Version: 6.00 Build 0)  -->
<svg version="1.1" id="suissecarte" xmlns="http://www.w3.org/2000/svg" xmlns:xlink="http://www.w3.org/1999/xlink" x="0px"
	 y="0px" viewBox="0 0 396 253.4" style="enable-background:new 0 0 396 253.4;" xml:space="preserve">
<style type="text/css">
	.suissecarte
	{fill:#E53E3E;stroke:#FFFFFF;stroke-miterlimit:10;}
	
	.suissecarte{
	animation-name:hide;
	animation-duration: 3s;
	fill:#E53E3E;
	stroke:#ffffff;
	stroke-width:1;stroke-linejoin:round;}
	
	.suissecarte:hover{
	fill:#FF8F8F;
	stroke:#ffffff;
	stroke-width:1;stroke-linejoin:round;}
	
	@keyframes hide {
	
				
				0% {
					opacity:0;
				}
				
				100%{
				opacity:1;}
			}
</style>
<path id="suissecarte_1_" class="suissecarte" d="M292.9,192.4l-3.3-18.4l14.8-3l15.1,24.6l26.9-11.5l14.1,19l9.5-3.6l-11.2-23l4.3-23.6
	l32.2,9.5l1.6-49.2l-12.5-9.5l-18,19.7l-23.3-9.5l-2-12.8l-34.3-3.5l4.8-5.9l-4-8.9l14.1-25.7l1.2-10.7l-19.1-3.6L285,24.5
	l-18.3-3.6l-10.1,4l-13.9-5.7l0.8-8.2l-14.6-8.1l-14.4,16.2l10.4,4.9l9-5.2l-2.6,9.5l-8.2-1l-5.3,7.1l-21.1-7l-10.7,8.4l-12.7,0.3
	l-7.5-4.5L154.5,38l0-8.1l-12.7,3.3l-3.4,9.4l-16.5,8.1l-10.5,0l0.3-7.9L96,42.5L84.2,58.5l11.5,0.3l3.6,3.3L81.6,81.8v2.6
	L69.4,98.2l-25.3,11.8l1,11.5l-0.2,11.7l-29.7,23l3.4,4.6l-8,15.1l5.6,8.5l0,0l-1,14.8L2.5,200l-1.6,9.8l16.7,1.6l14.8-11.2l-4.9-2
	l-2.3-12.5l0,0l7.6-13.2l27.9-6.8l25.5,14.6l-8.9,0.5l0,0L75,210.8l29.9,38.1l36.4-14.8l25.9,7.2l26.2-26.6l-5.2-17.7l24.1-22.1
	l8.3-0.6l-2.4,26l22.1,20.6l14.6,0.4l-4.7,13.1l12.3,17.8l13.3-7.7l-8.4-16.6l14.3-16.3L292.9,192.4z"/>
</svg>
