<?xml version="1.0" encoding="utf-8"?>
<!-- Generator: Adobe Illustrator 20.1.0, SVG Export Plug-In . SVG Version: 6.00 Build 0)  -->
<svg version="1.1" id="Calque_1" xmlns="http://www.w3.org/2000/svg" xmlns:xlink="http://www.w3.org/1999/xlink" x="0px" y="0px"
	 viewBox="0 0 698 154.3" style="enable-background:new 0 0 698 154.3;" xml:space="preserve">
<style type="text/css">
	.st0{fill:#FFFFFF;}
	.st1{fill:#636363;}
	.st2{fill:#777777;}
</style>
<g>
	<g>
		<rect x="7.3" y="6.7" class="st0" width="683.4" height="142"/>
		<path class="st1" d="M689.2,8.2v139H8.8V8.2H689.2 M692.2,5.2H5.8v145h686.4V5.2L692.2,5.2z"/>
	</g>
	<g>
		<g>
			<path class="st2" d="M28.7,26.1h8.9v40.7H59v7.8H28.7V26.1z"/>
			<path class="st2" d="M91.5,59.6H75.8l-5.2,15.1h-9.2l17.3-48.6H89l17.3,48.6h-9.4L91.5,59.6z M78.1,51.9h11.2l-5.5-16.7h-0.1
				L78.1,51.9z"/>
			<path class="st2" d="M150.2,75.5c-13,0-23.3-9.6-23.3-25.2c0-15.2,10.3-25,23.2-25c10.2,0,18.4,4.9,21.2,14.2l-8.5,2.6
				c-1.3-4.3-5.9-8.5-12.8-8.5c-8.1,0-14.2,6.8-14.2,16.7c0,10.3,6,17,14.2,17c6.7,0,11.6-3.5,12.9-9.2H151v-7.8h21.4v2.4
				C172.4,67.7,161.9,75.5,150.2,75.5z"/>
			<path class="st2" d="M214,74.7h-33V26.1h32.7V34h-23.9v9.9H212v7.8h-22.2v15.1H214V74.7z"/>
			<path class="st2" d="M219.9,50.3c0-15.1,10.4-25,23.4-25c13.1,0,23.4,9.8,23.4,25c0,15.5-10.6,25.2-23.4,25.2
				S219.9,65.9,219.9,50.3z M257.7,50.3c0-9.8-6-16.7-14.3-16.7s-14.3,6.9-14.3,16.7c0,10.1,6.2,16.9,14.3,16.9
				C251.6,67.2,257.7,60.5,257.7,50.3z"/>
			<path class="st2" d="M296,75.5c-13,0-23.3-9.6-23.3-25.2c0-15.2,10.3-25,23.2-25c10.2,0,18.4,4.9,21.2,14.2l-8.5,2.6
				c-1.3-4.3-5.9-8.5-12.8-8.5c-8.1,0-14.2,6.8-14.2,16.7c0,10.3,6,17,14.2,17c6.7,0,11.6-3.5,12.9-9.2h-12.1v-7.8H318v2.4
				C318.2,67.7,307.7,75.5,296,75.5z"/>
			<path class="st2" d="M342.7,53.6h-7.2v21.1h-8.7V26.1h19.8c8.4,0,15,5.2,15,13.5c0,3.9-1.1,6.9-3.8,9.6c-1.5,1.6-3.5,2.7-5.7,3.4
				l12.8,22.1h-10.2L342.7,53.6z M335.5,45.9h10.3c3.9,0,6.6-2.2,6.6-6.1c0-3.6-2.9-5.8-6.7-5.8h-10.2L335.5,45.9L335.5,45.9z"/>
			<path class="st2" d="M396.6,59.6h-15.7l-5.2,15.1h-9.2l17.3-48.6H394l17.3,48.6h-9.4L396.6,59.6z M383.1,51.9h11.2l-5.5-16.7
				h-0.1L383.1,51.9z"/>
			<path class="st2" d="M426.6,54.2v20.5h-8.8V26.1h19c8.5,0,14.8,5,14.8,14c0,9.2-6.8,14.1-15.2,14.1
				C436.4,54.2,426.6,54.2,426.6,54.2z M426.6,46.4h9.2c4.3,0,6.7-2.4,6.7-6.2s-2.8-6.2-6.8-6.2h-9.1L426.6,46.4L426.6,46.4z"/>
			<path class="st2" d="M490.3,50.1h-22.5v24.6H459V26.1h8.9v16.1h22.5V26.1h8.9v48.6h-8.9V50.1H490.3z"/>
			<path class="st2" d="M510.3,26.1h8.9v48.6h-8.9L510.3,26.1L510.3,26.1z"/>
			<path class="st2" d="M563.3,74.7h-33V26.1H563V34h-23.9v9.9h22.2v7.8h-22.2v15.1h24.2V74.7z"/>
		</g>
	</g>
	<g>
		<g>
			<path class="st2" d="M189.8,80.6h16.8c11.9,0,22.9,8.4,22.9,23.8c0,16.1-10.9,24.8-22.8,24.8h-16.9V80.6z M206.4,121.4
				c7.9,0,13.9-6.4,13.9-16.9c0-9.8-6.3-16-14.2-16h-7.5v32.9H206.4z"/>
			<path class="st2" d="M237.4,111V80.6h8.9v30c0,6.9,4,11.1,10.2,11.1s10.1-4.1,10.1-11v-30h8.9v30.2c0,12.3-7.6,19.1-19.1,19.1
				C245.1,130,237.4,123.5,237.4,111z"/>
			<path class="st2" d="M311.5,108.7v20.5h-8.8V80.6h19c8.5,0,14.8,5,14.8,14c0,9.2-6.8,14.1-15.2,14.1H311.5z M311.5,100.9h9.2
				c4.3,0,6.7-2.4,6.7-6.2c0-3.8-2.8-6.2-6.8-6.2h-9.1L311.5,100.9L311.5,100.9z"/>
			<path class="st2" d="M341.2,104.8c0-15.1,10.4-25,23.4-25c13.1,0,23.4,9.8,23.4,25c0,15.5-10.6,25.2-23.4,25.2
				C351.8,130,341.2,120.4,341.2,104.8z M379,104.8c0-9.8-6-16.7-14.3-16.7s-14.3,6.9-14.3,16.7c0,10.1,6.2,16.9,14.3,16.9
				C372.9,121.7,379,115,379,104.8z"/>
			<path class="st2" d="M412.5,108.1h-7.2v21.1h-8.7V80.6h19.8c8.4,0,15,5.2,15,13.5c0,3.9-1.1,6.9-3.8,9.6
				c-1.5,1.6-3.5,2.7-5.7,3.4l12.8,22.1h-10.2L412.5,108.1z M405.3,100.4h10.3c3.9,0,6.6-2.2,6.6-6.1c0-3.6-2.9-5.8-6.7-5.8h-10.2
				L405.3,100.4L405.3,100.4z"/>
			<path class="st2" d="M460.1,88.5v40.7h-8.8V88.5h-14.6v-7.8h37.9v7.8H460.1z"/>
			<path class="st2" d="M481.1,111V80.6h8.9v30c0,6.9,4,11.1,10.2,11.1s10.1-4.1,10.1-11v-30h8.9v30.2c0,12.3-7.6,19.1-19.1,19.1
				C488.8,130,481.1,123.5,481.1,111z"/>
			<path class="st2" d="M550.4,130c-13,0-23.3-9.6-23.3-25.2c0-15.2,10.3-25,23.2-25c10.2,0,18.4,4.9,21.2,14.2l-8.5,2.6
				c-1.3-4.3-5.9-8.5-12.8-8.5c-8.1,0-14.2,6.8-14.2,16.7c0,10.3,6,17,14.2,17c6.7,0,11.6-3.5,12.9-9.2H551v-7.8h21.4v2.4
				C572.6,122.2,562.2,130,550.4,130z"/>
			<path class="st2" d="M606.7,114.1H591l-5.2,15.1h-9.2l17.3-48.6h10.3l17.3,48.6H612L606.7,114.1z M593.2,106.4h11.2l-5.5-16.7
				h-0.1L593.2,106.4z"/>
			<path class="st2" d="M627.9,80.6h8.9v40.7h21.4v7.8h-30.3L627.9,80.6L627.9,80.6z"/>
		</g>
	</g>
</g>
</svg>
